<?xml version="1.0" encoding="UTF-8" standalone="no"?>
<!DOCTYPE svg PUBLIC "-//W3C//DTD SVG 1.1//EN"
 "http://www.w3.org/Graphics/SVG/1.1/DTD/svg11.dtd">
<!-- Generated by graphviz version 12.1.1 (20240910.0053)
 -->
<!-- Title: INFRA Pages: 1 -->
<svg width="1767pt" height="512pt"
 viewBox="0.00 0.00 1766.93 512.00" xmlns="http://www.w3.org/2000/svg" xmlns:xlink="http://www.w3.org/1999/xlink">
<g id="graph0" class="graph" transform="scale(1 1) rotate(0) translate(4 508)">
<title>INFRA</title>
<polygon fill="white" stroke="none" points="-4,4 -4,-508 1762.93,-508 1762.93,4 -4,4"/>
<!-- org_catalog_vpc -->
<g id="node1" class="node">
<title>org_catalog_vpc</title>
<path fill="#e6e6e6" stroke="black" stroke-width="2" d="M1099.92,-72C1099.92,-72 995.12,-72 995.12,-72 989.12,-72 983.12,-66 983.12,-60 983.12,-60 983.12,-12 983.12,-12 983.12,-6 989.12,0 995.12,0 995.12,0 1099.92,0 1099.92,0 1105.92,0 1111.92,-6 1111.92,-12 1111.92,-12 1111.92,-60 1111.92,-60 1111.92,-66 1105.92,-72 1099.92,-72"/>
<text text-anchor="middle" x="1047.52" y="-40.2" font-family="Arial" font-size="14.00">org_catalog_vpc</text>
<text text-anchor="middle" x="1047.52" y="-23.4" font-family="Arial" font-size="14.00">(AWS::EC2::VPC)</text>
</g>
<!-- org_catalog_public_subnets -->
<g id="node2" class="node">
<title>org_catalog_public_subnets</title>
<path fill="#e6e6e6" stroke="black" stroke-width="2" d="M363.7,-180C363.7,-180 197.35,-180 197.35,-180 191.35,-180 185.35,-174 185.35,-168 185.35,-168 185.35,-120 185.35,-120 185.35,-114 191.35,-108 197.35,-108 197.35,-108 363.7,-108 363.7,-108 369.7,-108 375.7,-114 375.7,-120 375.7,-120 375.7,-168 375.7,-168 375.7,-174 369.7,-180 363.7,-180"/>
<text text-anchor="middle" x="280.52" y="-148.2" font-family="Arial" font-size="14.00">org_catalog_public_subnets</text>
<text text-anchor="middle" x="280.52" y="-131.4" font-family="Arial" font-size="14.00">(AWS::EC2::Subnet)</text>
</g>
<!-- org_catalog_public_subnets&#45;&gt;org_catalog_vpc -->
<g id="edge1" class="edge">
<title>org_catalog_public_subnets&#45;&gt;org_catalog_vpc</title>
<path fill="none" stroke="black" d="M376.11,-129.79C530.36,-108.47 831.04,-66.92 971.63,-47.49"/>
<polygon fill="black" stroke="black" points="971.77,-51 981.2,-46.17 970.81,-44.07 971.77,-51"/>
</g>
<!-- org_catalog_neptune_subnets -->
<g id="node3" class="node">
<title>org_catalog_neptune_subnets</title>
<path fill="#e6e6e6" stroke="black" stroke-width="2" d="M763.71,-180C763.71,-180 583.33,-180 583.33,-180 577.33,-180 571.33,-174 571.33,-168 571.33,-168 571.33,-120 571.33,-120 571.33,-114 577.33,-108 583.33,-108 583.33,-108 763.71,-108 763.71,-108 769.71,-108 775.71,-114 775.71,-120 775.71,-120 775.71,-168 775.71,-168 775.71,-174 769.71,-180 763.71,-180"/>
<text text-anchor="middle" x="673.52" y="-148.2" font-family="Arial" font-size="14.00">org_catalog_neptune_subnets</text>
<text text-anchor="middle" x="673.52" y="-131.4" font-family="Arial" font-size="14.00">(AWS::EC2::Subnet)</text>
</g>
<!-- org_catalog_neptune_subnets&#45;&gt;org_catalog_vpc -->
<g id="edge2" class="edge">
<title>org_catalog_neptune_subnets&#45;&gt;org_catalog_vpc</title>
<path fill="none" stroke="black" d="M775.72,-114.04C837.66,-96.48 915.35,-74.46 971.79,-58.46"/>
<polygon fill="black" stroke="black" points="972.67,-61.85 981.33,-55.76 970.76,-55.12 972.67,-61.85"/>
</g>
<!-- org_catalog_internet_gateway -->
<g id="node4" class="node">
<title>org_catalog_internet_gateway</title>
<path fill="#e78f81" stroke="black" stroke-width="2" d="M1245.31,-180C1245.31,-180 1065.73,-180 1065.73,-180 1059.73,-180 1053.73,-174 1053.73,-168 1053.73,-168 1053.73,-120 1053.73,-120 1053.73,-114 1059.73,-108 1065.73,-108 1065.73,-108 1245.31,-108 1245.31,-108 1251.31,-108 1257.31,-114 1257.31,-120 1257.31,-120 1257.31,-168 1257.31,-168 1257.31,-174 1251.31,-180 1245.31,-180"/>
<text text-anchor="middle" x="1155.52" y="-148.2" font-family="Arial" font-size="14.00">org_catalog_internet_gateway</text>
<text text-anchor="middle" x="1155.52" y="-131.4" font-family="Arial" font-size="14.00">(AWS::EC2::InternetGateway)</text>
</g>
<!-- org_catalog_internet_gateway&#45;&gt;org_catalog_vpc -->
<g id="edge3" class="edge">
<title>org_catalog_internet_gateway&#45;&gt;org_catalog_vpc</title>
<path fill="none" stroke="black" d="M1119.56,-107.7C1110.54,-98.85 1100.77,-89.26 1091.41,-80.08"/>
<polygon fill="black" stroke="black" points="1093.99,-77.71 1084.41,-73.2 1089.09,-82.71 1093.99,-77.71"/>
</g>
<!-- org_catalog_public_route_table -->
<g id="node5" class="node">
<title>org_catalog_public_route_table</title>
<path fill="#e6e6e6" stroke="black" stroke-width="2" d="M1474.21,-180C1474.21,-180 1286.83,-180 1286.83,-180 1280.83,-180 1274.83,-174 1274.83,-168 1274.83,-168 1274.83,-120 1274.83,-120 1274.83,-114 1280.83,-108 1286.83,-108 1286.83,-108 1474.21,-108 1474.21,-108 1480.21,-108 1486.21,-114 1486.21,-120 1486.21,-120 1486.21,-168 1486.21,-168 1486.21,-174 1480.21,-180 1474.21,-180"/>
<text text-anchor="middle" x="1380.52" y="-148.2" font-family="Arial" font-size="14.00">org_catalog_public_route_table</text>
<text text-anchor="middle" x="1380.52" y="-131.4" font-family="Arial" font-size="14.00">(AWS::EC2::RouteTable)</text>
</g>
<!-- org_catalog_public_route_table&#45;&gt;org_catalog_vpc -->
<g id="edge4" class="edge">
<title>org_catalog_public_route_table&#45;&gt;org_catalog_vpc</title>
<path fill="none" stroke="black" d="M1274.7,-109.32C1225.44,-93.63 1167.96,-75.34 1123.15,-61.07"/>
<polygon fill="black" stroke="black" points="1124.37,-57.79 1113.78,-58.09 1122.25,-64.46 1124.37,-57.79"/>
</g>
<!-- org_catalog_nat_gateway -->
<g id="node6" class="node">
<title>org_catalog_nat_gateway</title>
<path fill="#e78f81" stroke="black" stroke-width="2" d="M165.04,-288C165.04,-288 12,-288 12,-288 6,-288 0,-282 0,-276 0,-276 0,-228 0,-228 0,-222 6,-216 12,-216 12,-216 165.04,-216 165.04,-216 171.04,-216 177.04,-222 177.04,-228 177.04,-228 177.04,-276 177.04,-276 177.04,-282 171.04,-288 165.04,-288"/>
<text text-anchor="middle" x="88.52" y="-256.2" font-family="Arial" font-size="14.00">org_catalog_nat_gateway</text>
<text text-anchor="middle" x="88.52" y="-239.4" font-family="Arial" font-size="14.00">(AWS::EC2::NatGateway)</text>
</g>
<!-- org_catalog_nat_gateway&#45;&gt;org_catalog_public_subnets -->
<g id="edge5" class="edge">
<title>org_catalog_nat_gateway&#45;&gt;org_catalog_public_subnets</title>
<path fill="none" stroke="black" d="M152.72,-215.56C170.01,-206.01 188.86,-195.61 206.63,-185.79"/>
<polygon fill="black" stroke="black" points="207.99,-189.04 215.06,-181.14 204.61,-182.91 207.99,-189.04"/>
</g>
<!-- org_catalog_private_route_table -->
<g id="node7" class="node">
<title>org_catalog_private_route_table</title>
<path fill="#e6e6e6" stroke="black" stroke-width="2" d="M1746.93,-180C1746.93,-180 1554.11,-180 1554.11,-180 1548.11,-180 1542.11,-174 1542.11,-168 1542.11,-168 1542.11,-120 1542.11,-120 1542.11,-114 1548.11,-108 1554.11,-108 1554.11,-108 1746.93,-108 1746.93,-108 1752.93,-108 1758.93,-114 1758.93,-120 1758.93,-120 1758.93,-168 1758.93,-168 1758.93,-174 1752.93,-180 1746.93,-180"/>
<text text-anchor="middle" x="1650.52" y="-148.2" font-family="Arial" font-size="14.00">org_catalog_private_route_table</text>
<text text-anchor="middle" x="1650.52" y="-131.4" font-family="Arial" font-size="14.00">(AWS::EC2::RouteTable)</text>
</g>
<!-- org_catalog_private_route_table&#45;&gt;org_catalog_vpc -->
<g id="edge6" class="edge">
<title>org_catalog_private_route_table&#45;&gt;org_catalog_vpc</title>
<path fill="none" stroke="black" d="M1541.62,-110.98C1537.21,-109.93 1532.83,-108.93 1528.52,-108 1386.8,-77.35 1218.72,-55.87 1123.45,-45.05"/>
<polygon fill="black" stroke="black" points="1124.03,-41.59 1113.7,-43.95 1123.25,-48.55 1124.03,-41.59"/>
</g>
<!-- org_catalog_s3_gateway_endpoint -->
<g id="node8" class="node">
<title>org_catalog_s3_gateway_endpoint</title>
<path fill="#e78f81" stroke="black" stroke-width="2" d="M1687.11,-288C1687.11,-288 1477.94,-288 1477.94,-288 1471.94,-288 1465.94,-282 1465.94,-276 1465.94,-276 1465.94,-228 1465.94,-228 1465.94,-222 1471.94,-216 1477.94,-216 1477.94,-216 1687.11,-216 1687.11,-216 1693.11,-216 1699.11,-222 1699.11,-228 1699.11,-228 1699.11,-276 1699.11,-276 1699.11,-282 1693.11,-288 1687.11,-288"/>
<text text-anchor="middle" x="1582.52" y="-256.2" font-family="Arial" font-size="14.00">org_catalog_s3_gateway_endpoint</text>
<text text-anchor="middle" x="1582.52" y="-239.4" font-family="Arial" font-size="14.00">(AWS::EC2::VPCEndpoint)</text>
</g>
<!-- org_catalog_s3_gateway_endpoint&#45;&gt;org_catalog_vpc -->
<g id="edge7" class="edge">
<title>org_catalog_s3_gateway_endpoint&#45;&gt;org_catalog_vpc</title>
<path fill="none" stroke="black" d="M1557,-215.79C1549.18,-204.54 1540.74,-191.91 1533.52,-180 1514.77,-149.06 1524.94,-129.06 1495.52,-108 1437.25,-66.29 1235.4,-48 1123.57,-40.91"/>
<polygon fill="black" stroke="black" points="1124.09,-37.44 1113.89,-40.32 1123.66,-44.43 1124.09,-37.44"/>
</g>
<!-- org_catalog_s3_gateway_endpoint&#45;&gt;org_catalog_private_route_table -->
<g id="edge8" class="edge">
<title>org_catalog_s3_gateway_endpoint&#45;&gt;org_catalog_private_route_table</title>
<path fill="none" stroke="black" d="M1605.16,-215.7C1610.5,-207.39 1616.25,-198.42 1621.81,-189.75"/>
<polygon fill="black" stroke="black" points="1624.71,-191.72 1627.16,-181.42 1618.81,-187.94 1624.71,-191.72"/>
</g>
<!-- org_catalog_s3_bucket -->
<g id="node9" class="node">
<title>org_catalog_s3_bucket</title>
<path fill="#fff5cd" stroke="black" stroke-width="2" d="M1304.91,-497.45C1304.91,-501.07 1268.88,-504 1224.52,-504 1180.16,-504 1144.13,-501.07 1144.13,-497.45 1144.13,-497.45 1144.13,-438.55 1144.13,-438.55 1144.13,-434.93 1180.16,-432 1224.52,-432 1268.88,-432 1304.91,-434.93 1304.91,-438.55 1304.91,-438.55 1304.91,-497.45 1304.91,-497.45"/>
<path fill="none" stroke="black" stroke-width="2" d="M1304.91,-497.45C1304.91,-493.84 1268.88,-490.91 1224.52,-490.91 1180.16,-490.91 1144.13,-493.84 1144.13,-497.45"/>
<text text-anchor="middle" x="1224.52" y="-472.2" font-family="Arial" font-size="14.00">org_catalog_s3_bucket</text>
<text text-anchor="middle" x="1224.52" y="-455.4" font-family="Arial" font-size="14.00">(AWS::S3::Bucket)</text>
</g>
<!-- neptune_cluster -->
<g id="node10" class="node">
<title>neptune_cluster</title>
<path fill="#ffcfb3" stroke="black" stroke-width="2" d="M614.27,-389.45C614.27,-393.07 571.8,-396 519.52,-396 467.24,-396 424.77,-393.07 424.77,-389.45 424.77,-389.45 424.77,-330.55 424.77,-330.55 424.77,-326.93 467.24,-324 519.52,-324 571.8,-324 614.27,-326.93 614.27,-330.55 614.27,-330.55 614.27,-389.45 614.27,-389.45"/>
<path fill="none" stroke="black" stroke-width="2" d="M614.27,-389.45C614.27,-385.84 571.8,-382.91 519.52,-382.91 467.24,-382.91 424.77,-385.84 424.77,-389.45"/>
<text text-anchor="middle" x="519.52" y="-364.2" font-family="Arial" font-size="14.00">neptune_cluster</text>
<text text-anchor="middle" x="519.52" y="-347.4" font-family="Arial" font-size="14.00">(AWS::Neptune::DBCluster)</text>
</g>
<!-- neptune_cluster&#45;&gt;org_catalog_neptune_subnets -->
<g id="edge9" class="edge">
<title>neptune_cluster&#45;&gt;org_catalog_neptune_subnets</title>
<path fill="none" stroke="black" d="M425.38,-326.41C422.4,-325.57 419.44,-324.77 416.52,-324 332.54,-301.98 279.97,-354.81 224.52,-288 204.08,-263.38 203.74,-240.33 224.52,-216 235.43,-203.23 430.5,-176.03 559.89,-159.25"/>
<polygon fill="black" stroke="black" points="560.06,-162.76 569.53,-158.01 559.17,-155.82 560.06,-162.76"/>
</g>
<!-- neptune_subnet_group -->
<g id="node12" class="node">
<title>neptune_subnet_group</title>
<path fill="#e6e6e6" stroke="black" stroke-width="2" d="M761.74,-288C761.74,-288 557.3,-288 557.3,-288 551.3,-288 545.3,-282 545.3,-276 545.3,-276 545.3,-228 545.3,-228 545.3,-222 551.3,-216 557.3,-216 557.3,-216 761.74,-216 761.74,-216 767.74,-216 773.74,-222 773.74,-228 773.74,-228 773.74,-276 773.74,-276 773.74,-282 767.74,-288 761.74,-288"/>
<text text-anchor="middle" x="659.52" y="-256.2" font-family="Arial" font-size="14.00">neptune_subnet_group</text>
<text text-anchor="middle" x="659.52" y="-239.4" font-family="Arial" font-size="14.00">(AWS::Neptune::DBSubnetGroup)</text>
</g>
<!-- neptune_cluster&#45;&gt;neptune_subnet_group -->
<g id="edge10" class="edge">
<title>neptune_cluster&#45;&gt;neptune_subnet_group</title>
<path fill="none" stroke="black" d="M566.14,-323.7C578.3,-314.5 591.53,-304.48 604.09,-294.97"/>
<polygon fill="black" stroke="black" points="606.04,-297.88 611.9,-289.06 601.81,-292.3 606.04,-297.88"/>
</g>
<!-- neptune_cluster_parameter_group -->
<g id="node13" class="node">
<title>neptune_cluster_parameter_group</title>
<path fill="#e6e6e6" stroke="black" stroke-width="2" d="M515.4,-288C515.4,-288 245.64,-288 245.64,-288 239.64,-288 233.64,-282 233.64,-276 233.64,-276 233.64,-228 233.64,-228 233.64,-222 239.64,-216 245.64,-216 245.64,-216 515.4,-216 515.4,-216 521.4,-216 527.4,-222 527.4,-228 527.4,-228 527.4,-276 527.4,-276 527.4,-282 521.4,-288 515.4,-288"/>
<text text-anchor="middle" x="380.52" y="-256.2" font-family="Arial" font-size="14.00">neptune_cluster_parameter_group</text>
<text text-anchor="middle" x="380.52" y="-239.4" font-family="Arial" font-size="14.00">(AWS::Neptune::DBClusterParameterGroup)</text>
</g>
<!-- neptune_cluster&#45;&gt;neptune_cluster_parameter_group -->
<g id="edge11" class="edge">
<title>neptune_cluster&#45;&gt;neptune_cluster_parameter_group</title>
<path fill="none" stroke="black" d="M473.24,-323.7C461.16,-314.5 448.03,-304.48 435.55,-294.97"/>
<polygon fill="black" stroke="black" points="437.88,-292.34 427.81,-289.06 433.64,-297.91 437.88,-292.34"/>
</g>
<!-- neptune_instances -->
<g id="node11" class="node">
<title>neptune_instances</title>
<path fill="#ffcfb3" stroke="black" stroke-width="2" d="M500.56,-497.45C500.56,-501.07 456.17,-504 401.52,-504 346.87,-504 302.48,-501.07 302.48,-497.45 302.48,-497.45 302.48,-438.55 302.48,-438.55 302.48,-434.93 346.87,-432 401.52,-432 456.17,-432 500.56,-434.93 500.56,-438.55 500.56,-438.55 500.56,-497.45 500.56,-497.45"/>
<path fill="none" stroke="black" stroke-width="2" d="M500.56,-497.45C500.56,-493.84 456.17,-490.91 401.52,-490.91 346.87,-490.91 302.48,-493.84 302.48,-497.45"/>
<text text-anchor="middle" x="401.52" y="-472.2" font-family="Arial" font-size="14.00">neptune_instances</text>
<text text-anchor="middle" x="401.52" y="-455.4" font-family="Arial" font-size="14.00">(AWS::Neptune::DBInstance)</text>
</g>
<!-- neptune_instances&#45;&gt;neptune_cluster -->
<g id="edge12" class="edge">
<title>neptune_instances&#45;&gt;neptune_cluster</title>
<path fill="none" stroke="black" d="M440.81,-431.7C450.76,-422.76 461.56,-413.06 471.88,-403.8"/>
<polygon fill="black" stroke="black" points="474.17,-406.44 479.27,-397.15 469.5,-401.23 474.17,-406.44"/>
</g>
<!-- neptune_parameter_group -->
<g id="node14" class="node">
<title>neptune_parameter_group</title>
<path fill="#e6e6e6" stroke="black" stroke-width="2" d="M395.23,-396C395.23,-396 169.81,-396 169.81,-396 163.81,-396 157.81,-390 157.81,-384 157.81,-384 157.81,-336 157.81,-336 157.81,-330 163.81,-324 169.81,-324 169.81,-324 395.23,-324 395.23,-324 401.23,-324 407.23,-330 407.23,-336 407.23,-336 407.23,-384 407.23,-384 407.23,-390 401.23,-396 395.23,-396"/>
<text text-anchor="middle" x="282.52" y="-364.2" font-family="Arial" font-size="14.00">neptune_parameter_group</text>
<text text-anchor="middle" x="282.52" y="-347.4" font-family="Arial" font-size="14.00">(AWS::Neptune::DBParameterGroup)</text>
</g>
<!-- neptune_instances&#45;&gt;neptune_parameter_group -->
<g id="edge13" class="edge">
<title>neptune_instances&#45;&gt;neptune_parameter_group</title>
<path fill="none" stroke="black" d="M361.9,-431.7C351.86,-422.76 340.97,-413.06 330.57,-403.8"/>
<polygon fill="black" stroke="black" points="332.9,-401.19 323.1,-397.15 328.24,-406.41 332.9,-401.19"/>
</g>
<!-- neptune_subnet_group&#45;&gt;org_catalog_neptune_subnets -->
<g id="edge14" class="edge">
<title>neptune_subnet_group&#45;&gt;org_catalog_neptune_subnets</title>
<path fill="none" stroke="black" d="M664.18,-215.7C665.21,-207.93 666.31,-199.57 667.39,-191.43"/>
<polygon fill="black" stroke="black" points="670.84,-192.02 668.68,-181.64 663.9,-191.1 670.84,-192.02"/>
</g>
<!-- neptune_security_group -->
<g id="node15" class="node">
<title>neptune_security_group</title>
<path fill="#e6e6e6" stroke="black" stroke-width="2" d="M1023.27,-180C1023.27,-180 857.78,-180 857.78,-180 851.78,-180 845.78,-174 845.78,-168 845.78,-168 845.78,-120 845.78,-120 845.78,-114 851.78,-108 857.78,-108 857.78,-108 1023.27,-108 1023.27,-108 1029.27,-108 1035.27,-114 1035.27,-120 1035.27,-120 1035.27,-168 1035.27,-168 1035.27,-174 1029.27,-180 1023.27,-180"/>
<text text-anchor="middle" x="940.52" y="-148.2" font-family="Arial" font-size="14.00">neptune_security_group</text>
<text text-anchor="middle" x="940.52" y="-131.4" font-family="Arial" font-size="14.00">(AWS::EC2::SecurityGroup)</text>
</g>
<!-- neptune_security_group&#45;&gt;org_catalog_vpc -->
<g id="edge15" class="edge">
<title>neptune_security_group&#45;&gt;org_catalog_vpc</title>
<path fill="none" stroke="black" d="M976.15,-107.7C985.08,-98.85 994.77,-89.26 1004.04,-80.08"/>
<polygon fill="black" stroke="black" points="1006.33,-82.73 1010.97,-73.21 1001.4,-77.76 1006.33,-82.73"/>
</g>
<!-- neptune_sagemaker_notebook -->
<g id="node16" class="node">
<title>neptune_sagemaker_notebook</title>
<path fill="#b7e0ff" stroke="black" stroke-width="2" d="M966.13,-504C966.13,-504 732.91,-504 732.91,-504 726.91,-504 720.91,-498 720.91,-492 720.91,-492 720.91,-444 720.91,-444 720.91,-438 726.91,-432 732.91,-432 732.91,-432 966.13,-432 966.13,-432 972.13,-432 978.13,-438 978.13,-444 978.13,-444 978.13,-492 978.13,-492 978.13,-498 972.13,-504 966.13,-504"/>
<text text-anchor="middle" x="849.52" y="-472.2" font-family="Arial" font-size="14.00">neptune_sagemaker_notebook</text>
<text text-anchor="middle" x="849.52" y="-455.4" font-family="Arial" font-size="14.00">(AWS::SageMaker::NotebookInstance)</text>
</g>
<!-- neptune_sagemaker_notebook&#45;&gt;neptune_cluster -->
<g id="edge16" class="edge">
<title>neptune_sagemaker_notebook&#45;&gt;neptune_cluster</title>
<path fill="none" stroke="black" d="M739.18,-431.56C702.43,-419.75 661.6,-406.64 625.21,-394.95"/>
<polygon fill="black" stroke="black" points="626.6,-391.72 616.01,-391.99 624.46,-398.38 626.6,-391.72"/>
</g>
<!-- neptune_sagemaker_notebook&#45;&gt;neptune_security_group -->
<g id="edge17" class="edge">
<title>neptune_sagemaker_notebook&#45;&gt;neptune_security_group</title>
<path fill="none" stroke="black" d="M933.75,-431.6C991.4,-402.36 1063.37,-354.77 1097.52,-288 1112.09,-259.51 1114.87,-242.89 1097.52,-216 1090.46,-205.06 1070.04,-193.35 1046.17,-182.65"/>
<polygon fill="black" stroke="black" points="1047.71,-179.51 1037.15,-178.74 1044.93,-185.93 1047.71,-179.51"/>
</g>
<!-- opensearch_collection -->
<g id="node17" class="node">
<title>opensearch_collection</title>
<path fill="#ffcfb3" stroke="black" stroke-width="2" d="M1689.01,-389.45C1689.01,-393.07 1626.49,-396 1549.52,-396 1472.55,-396 1410.03,-393.07 1410.03,-389.45 1410.03,-389.45 1410.03,-330.55 1410.03,-330.55 1410.03,-326.93 1472.55,-324 1549.52,-324 1626.49,-324 1689.01,-326.93 1689.01,-330.55 1689.01,-330.55 1689.01,-389.45 1689.01,-389.45"/>
<path fill="none" stroke="black" stroke-width="2" d="M1689.01,-389.45C1689.01,-385.84 1626.49,-382.91 1549.52,-382.91 1472.55,-382.91 1410.03,-385.84 1410.03,-389.45"/>
<text text-anchor="middle" x="1549.52" y="-364.2" font-family="Arial" font-size="14.00">opensearch_collection</text>
<text text-anchor="middle" x="1549.52" y="-347.4" font-family="Arial" font-size="14.00">(AWS::OpenSearchServerless::Collection)</text>
</g>
<!-- opensearch_security_policy -->
<g id="node18" class="node">
<title>opensearch_security_policy</title>
<path fill="#e6e6e6" stroke="black" stroke-width="2" d="M1690.23,-504C1690.23,-504 1408.81,-504 1408.81,-504 1402.81,-504 1396.81,-498 1396.81,-492 1396.81,-492 1396.81,-444 1396.81,-444 1396.81,-438 1402.81,-432 1408.81,-432 1408.81,-432 1690.23,-432 1690.23,-432 1696.23,-432 1702.23,-438 1702.23,-444 1702.23,-444 1702.23,-492 1702.23,-492 1702.23,-498 1696.23,-504 1690.23,-504"/>
<text text-anchor="middle" x="1549.52" y="-472.2" font-family="Arial" font-size="14.00">opensearch_security_policy</text>
<text text-anchor="middle" x="1549.52" y="-455.4" font-family="Arial" font-size="14.00">(AWS::OpenSearchServerless::SecurityPolicy)</text>
</g>
<!-- opensearch_security_policy&#45;&gt;opensearch_collection -->
<g id="edge18" class="edge">
<title>opensearch_security_policy&#45;&gt;opensearch_collection</title>
<path fill="none" stroke="black" d="M1549.52,-431.7C1549.52,-423.93 1549.52,-415.57 1549.52,-407.43"/>
<polygon fill="black" stroke="black" points="1553.02,-407.66 1549.52,-397.66 1546.02,-407.66 1553.02,-407.66"/>
</g>
<!-- opensearch_vpc_endpoint -->
<g id="node19" class="node">
<title>opensearch_vpc_endpoint</title>
<path fill="#e78f81" stroke="black" stroke-width="2" d="M1076.97,-288C1076.97,-288 804.07,-288 804.07,-288 798.07,-288 792.07,-282 792.07,-276 792.07,-276 792.07,-228 792.07,-228 792.07,-222 798.07,-216 804.07,-216 804.07,-216 1076.97,-216 1076.97,-216 1082.97,-216 1088.97,-222 1088.97,-228 1088.97,-228 1088.97,-276 1088.97,-276 1088.97,-282 1082.97,-288 1076.97,-288"/>
<text text-anchor="middle" x="940.52" y="-256.2" font-family="Arial" font-size="14.00">opensearch_vpc_endpoint</text>
<text text-anchor="middle" x="940.52" y="-239.4" font-family="Arial" font-size="14.00">(AWS::OpenSearchServerless::VpcEndpoint)</text>
</g>
<!-- opensearch_vpc_endpoint&#45;&gt;org_catalog_vpc -->
<g id="edge19" class="edge">
<title>opensearch_vpc_endpoint&#45;&gt;org_catalog_vpc</title>
<path fill="none" stroke="black" d="M868.49,-215.66C855.63,-205.95 843.97,-194.11 836.52,-180 821.58,-151.7 817.85,-133.99 836.52,-108 867.11,-65.43 924.51,-48.04 971.73,-41.1"/>
<polygon fill="black" stroke="black" points="971.92,-44.6 981.37,-39.82 971,-37.66 971.92,-44.6"/>
</g>
<!-- opensearch_vpc_endpoint&#45;&gt;org_catalog_neptune_subnets -->
<g id="edge20" class="edge">
<title>opensearch_vpc_endpoint&#45;&gt;org_catalog_neptune_subnets</title>
<path fill="none" stroke="black" d="M851.24,-215.56C826.19,-205.61 798.8,-194.74 773.19,-184.57"/>
<polygon fill="black" stroke="black" points="774.71,-181.41 764.12,-180.97 772.12,-187.91 774.71,-181.41"/>
</g>
<!-- opensearch_vpc_endpoint&#45;&gt;neptune_security_group -->
<g id="edge21" class="edge">
<title>opensearch_vpc_endpoint&#45;&gt;neptune_security_group</title>
<path fill="none" stroke="black" d="M940.52,-215.7C940.52,-207.93 940.52,-199.57 940.52,-191.43"/>
<polygon fill="black" stroke="black" points="944.02,-191.66 940.52,-181.66 937.02,-191.66 944.02,-191.66"/>
</g>
</g>
</svg>
